<svg version="1.0" xmlns="http://www.w3.org/2000/svg" width="340" height="700" viewBox="0 0 638 1314">
  <path d="M607.5 40.9c-2.2 1.6-6.5 6.4-9.5 10.6-3.6 5-6.3 7.7-8 8.1-4.8 1-9 3.4-17.2 9.7-13.4 10.2-27.8 15.3-88.5 31.7-53.5 14.4-62 15.8-121.7 19.5-62.5 3.9-81.7 6.1-97.5 11-13.3 4.2-14.6 4.2-24.7-.1-7.9-3.4-9.8-3.8-16.9-3.8-9.5.1-15.8 2.3-25.2 9-10.9 7.8-14.1 14.3-8.7 17.9 1.5.9 7.6 2.9 13.7 4.4l11 2.7-20.7 13.4-20.7 13.5.5 3.9c.6 4.8 5.4 12 8.3 12.4 2.4.4 14.7-7.6 38.1-24.5 31.9-23.1 46.6-31.5 62.2-35.3 6.9-1.7 13.9-2.2 36.5-3 15.4-.5 30.5-1.4 33.5-1.9 3-.6 10-1.9 15.5-3s21.3-3.4 35-5c55.5-6.8 79.8-10.6 108.5-16.7 22.9-5 26.6-4.7 24.1 1.4-3.5 8.5-35 31.2-78.3 56.5-21.3 12.5-25.7 14.5-53.9 25.1-39.9 14.8-52.6 18.4-152.2 43.1-32.3 8-64.2 16.4-71 18.6-6.7 2.3-14.7 4.7-17.7 5.4l-5.5 1.2 4.9 2.3c4.6 2.1 5.9 2.2 18 1.7 7.2-.3 25.5-2.1 40.6-4.1 15.1-1.9 32.9-3.9 39.4-4.5 11.1-.9 12.6-1.2 19.6-4.9 8.7-4.6 19.2-8 36-11.7 17.3-3.9 32.4-8.3 43.4-12.7 5.5-2.2 14.5-5.1 20-6.4 20.1-4.9 22.9-5.7 30.4-9.4 4.2-2 9.7-4 12.2-4.4 2.4-.4 11.7-3.6 20.6-7.1 8.9-3.6 16.9-6.5 17.8-6.5 3.1 0 8.7-2.9 13.1-6.8 2.4-2.1 9.9-6.7 16.7-10.2 20.1-10.3 20.6-10.7 63.9-49 29.7-26.3 43.3-38 44.3-38 3.9 0-19.1 43.9-37.9 72.5-10.1 15.3-20.4 27.2-40.6 47-19 18.6-35.4 32.5-49.4 41.8-16.5 10.9-90.9 46.4-119 56.8-4.9 1.8-19.3 7.2-31.8 12.1-32.9 12.7-58.6 19.6-92.7 24.7-23.3 3.4-35.9 4.4-56 4.4s-24.8-.6-42-5.3c-4.1-1.1-8.8-1.9-10.5-1.8-2.6.3-3 .7-3.3 3.7-.5 4.5 2.6 7.5 10.2 10.1 13.3 4.4 23.5 5.2 73.6 5.9l47.5.6 4.5 2.6c2.5 1.4 6.8 4 9.5 5.7 10.6 6.6 27.8 8.6 75.5 8.6 34.7 0 44.7-.7 63.4-4.5 42-8.7 83.6-24.3 120.7-45.2 15.2-8.6 26.7-14.2 27.5-13.4 1 1-3.5 8.5-9.8 16.3-8.3 10.4-35.3 37.2-48.5 48.2-23.9 19.9-46.8 31.9-81.3 42.5-27.3 8.5-81.1 22.6-92 24.1-45 6.3-103.6 4.2-135.5-4.9-12-3.4-31-13-41.5-20.9-4.7-3.5-15-12.3-23-19.6-16.3-14.8-25.1-21.7-28.7-22.6-10.4-2.6 2.4 18.3 25.2 41.2 17.1 17.1 32.2 26.5 58.9 36.4 13.6 5.1 17.6 10.2 17.6 22.3 0 4.3-.5 5.3-4.7 9.8-13.3 14.3-41.5 24.4-71.3 25.6-15.5.6-25.4-1-32.6-5.2-6.8-4-9.4-10.7-19-49.4-4.5-18.5-10.1-40.4-12.4-48.6-21.8-78.6-30.1-127.8-28.7-170 .7-19.9 2.7-29.7 8.7-42.2C34 192 46.5 176 50.1 176c4.7 0 4.9 12.3.5 33.8-3.9 18.9-4.9 31-3.1 39.4 4.2 20.1 22.3 43.1 41.2 52.5 8.9 4.4 15.5 5.3 21.9 2.8 7.4-2.8 9.5-8.8 3.5-10-9.3-1.9-15.2-4.1-21.1-7.9-13.5-8.8-24.6-22.2-28.9-34.9-3.7-10.7-3.7-15.2.2-37.2 2-11 3.8-22.1 4.2-24.6 1-7.8 4-9.7 57.5-36.9 22.3-11.3 46-24 52.6-28.2 14.5-9.1 19-11.5 26.9-14.2 6.6-2.3 10.8-7 10.3-11.6-.3-2.5-.4-2.5-8.3-2.3-28.8.5-111 31.1-154.8 57.6-18.8 11.4-25 18.1-34.9 38.2C.7 226.9-2.9 259 5.1 307c1.2 6.9 7.2 32.7 13.4 57.5 6.2 24.7 15.4 62.8 20.5 84.5 8.5 36.7 18.8 78.7 26 105.9 4.5 16.9 14.4 67 28 141.9 22.8 125.3 37.1 195.5 51.5 253.2 10.3 41.1 11.3 60.5 5.1 92.2-1.2 6.5-2 12-1.8 12.3.3.3 5.8.5 12.2.5 14.6 0 14.7 0 12.6 10.3-2.5 11.8-3.9 68-3.3 126.2.5 44.9 1.1 58.4 3.2 67.3.6 2.5 2.5 2.1 2.5-.6 0-2.8 4.6-11.8 6.4-12.5 2.8-1.1 4.3.3 8.1 7.4 2.4 4.5 4.6 7.4 6.6 8.4 1.6.9 2.9 1.8 2.9 2.1 0 1-14.7 7.5-18.3 8.1-3 .4-4.5 0-7.7-2.1-4.6-3-6.3-3.3-5.8-.9.5 2.7 7.2 6.8 20.5 12.7 13.4 6 20.7 10.2 19.8 11.5-.6 1-5.7 0-12.4-2.4-5.2-1.8-12.7-2-13.7-.3-1.5 2.4 9.6 7.4 29.8 13.4 15.2 4.4 20.4 4.3 30.3-.5 3.7-1.9 8.4-4.8 10.4-6.6 2-1.7 4.5-3.5 5.6-3.9 1.1-.4 12.8-1.1 26-1.6 66.2-2.5 78-3.2 79.8-4.8 2.4-2.1 2.1-3.1-1-4.3-2-.8-6.4-.8-15.7.1-7.7.7-13.2.8-13.7.3-.6-.6.9-2.2 3.6-4.2 2.6-1.8 4.4-3.5 4.2-3.8-.3-.2-6.5.5-13.8 1.6-7.4 1.1-16.8 2.2-20.9 2.5l-7.5.6 7-3.4c4.4-2.1 6.5-3.6 5.5-3.9-6.2-2.4-15.3-3.9-25.5-4.4-12.1-.5-16.5-1.8-16.5-4.7 0-2.2 3.4-2.6 25.4-2.6 24.4 0 31.5-1 38.7-5.3 9.7-5.9 9.6-5.9-26.7-5.2-29.8.5-32.6.4-29.6-.9 1.8-.8 3.5-2.2 3.8-3 .9-2.3 3.7-2.7 30.9-3.6 14.3-.5 27.7-1.2 29.9-1.6 6.6-1.1 2-2.4-8.5-2.4-11.1 0-16.1-.8-15.6-2.4.7-2.3 9.5-6.7 15.8-8 5.2-1 6.4-1.6 6.4-3.2 0-2.2-4.9-4.3-10.3-4.3-2.4-.1-4.2-1-6.2-3.1-2.5-2.7-3.4-3-8.7-3-3.2 0-12.8 1.1-21.3 2.5-18.9 3-29.1 3.2-40.2.5-10.4-2.5-16.8-2.6-16.8-.4 0 .9 1.1 2.9 2.5 4.6 1.4 1.6 2.5 3.7 2.5 4.5 0 4.1-19.7-3.7-27.2-10.8-3.3-3.1-3.8-4.2-3.8-8.1 0-7.7-6.6-13.3-17.2-14.5-4.3-.5-5-.4-4.7 1.1.2.9 3.8 4.2 7.9 7.4 4.1 3.2 7.5 6.4 7.5 7.1 0 .8-2.4 2.2-5.5 3.3-3 1-6.1 2.5-6.9 3.3-1.3 1.3-1.2 1.7.4 3.5 1.1 1.2 5.5 4 9.9 6.3 8.2 4.2 8.4 5.6.8 3.8-3.1-.6-4.2-.6-4.2.3 0 .6 5 6.1 11.1 12.1 15.6 15.6 18.2 20.5 10.7 20.5-4.9 0-13-4.2-22.1-11.5-4.4-3.5-9.9-7.1-12.1-7.8-7.5-2.5-8.1-4.3-8.4-25.5-.4-17.5 1-51 2.4-61.6.4-2.9 1.2-4.6 2-4.6s4.2 2.9 7.7 6.4c6 6.2 10.1 8.4 13.2 7.2 2.8-1 1.5-4.3-4.6-12.2-9.1-11.7-12.6-20.2-10-24.3 1-1.5 1.8-.4 6.7 8.9 2.1 4 3.9 6 6.7 7.3 3.7 1.8 3.9 1.8 13.2-.2 16.2-3.6 20.6-2.3 12.9 3.6-8.5 6.5-10.5 8.6-10.2 10.7.2 1.4 1.1 2.2 2.8 2.4 5.4.6 8.1 2.5 10.5 7.1 2.7 5.3 6.4 9 12 12l4 2.1-4-.6c-2.2-.3-8.2-1.7-13.3-3-12.1-3.1-12.3-3.1-11.6.5.6 2.7.4 2.9-3.5 3.6-2.3.4-4.1 1.1-4.1 1.6 0 1.4 13.8 10.8 22 14.9 10.5 5.2 17.4 7.3 21.6 6.5 2.8-.5 3.8-.2 5.2 1.5 4 5 40.3 5 44.4.1 1.4-1.8 2.3-2 6.4-1.4 3.9.5 4.9.3 6-1.2 2.1-2.9 1.7-5.4-1.5-8.6-2.2-2.1-3.9-2.9-6.6-2.9-4.6 0-9.5-2.5-9.5-4.9 0-4.1 6.1-7.1 21.5-10.5 15.6-3.4 18.5-6.2 9.2-8.7-5.5-1.4-26.5-1.5-30.9 0-1.9.6-4.6 2.3-5.8 3.6-1.3 1.4-3 2.5-3.7 2.5-1.3 0-7.3-8.4-7.3-10.2 0-3 19.2-7 44.4-9.3 20-1.8 33.1-3.8 38.1-5.9 4.1-1.8 5.8-4.3 8.9-13.4 5.1-14.9 13.6-27.2 18.8-27.2 2.8 0 3.8 1.6 3.8 6.1 0 2.8 4 7.9 6.1 7.9 2.5 0 11.8 4.3 12.3 5.7 1.7 4.2-9.3 10-21.3 11.2-4.2.5-9.2 1.5-11.1 2.3-7.2 3.1-9.2 8.8-3 8.8 4.9 0 3.5 1.8-4 5.1-3.8 1.8-7 3.6-7 4.2 0 1.7 14.8 0 24.5-2.8 9-2.6 17.5-6.8 17.5-8.5 0-2.1 6.3-4.2 10.9-3.7 5.9.7 7.1 2.5 7.1 10.9 0 8.3-1.6 10.3-8.7 11.3-2.6.4-6.9 1.6-9.4 2.7-5 2.1-10.8 7.3-9.5 8.5.4.4 5.5-.5 11.4-2.1 14.7-3.9 16.3-4.1 17.3-2.5.5.8.9 4.4.9 8.1 0 8.3-1.8 10.8-7.8 10.8-6.3 0-12.4-2.7-20.3-9-4.7-3.8-8.8-6.2-11.3-6.7l-3.8-.8 6.1-4.8c6.8-5.2 7.9-8.2 3.5-9.3-3-.8-23.7 1.9-33.1 4.3-6.6 1.6-10.5 4.5-8.6 6.4.6.6 5.1 1.6 10 2.1 8.5 1 12.3 2.6 12.3 5.3 0 2 4.5 5.4 9.3 7.1 5.3 1.8 5.7 2.8 2.4 5.4-1.2 1-1.8 2.2-1.4 2.6.4.5 7.2 1.1 15 1.4l14.2.5-10 4.2c-16.4 6.8-20.9 7.5-29.9 4.8-6.2-1.9-14-2-15.5-.1-1.7 2-9.1 3.6-19 4.2-11.3.7-13.7 1.2-12.3 2.6.7.7 7.3 1.3 17.2 1.6 8.8.3 16 .8 16 1.2 0 .4-1.6 2.2-3.5 3.9-2.9 2.5-4.5 3.1-8 3.1-4.3 0-4.5.1-4.5 3 0 4.3 2.5 5.1 17.7 6 14.9.9 18.2 2.1 14.3 5.2-1.2 1-3.3 1.8-4.6 1.8-1.3 0-2.9.7-3.6 1.6-3.5 4.3-5 5.4-6.9 5.4-3.9 0-11.9 5.8-11.9 8.7 0 2 5.7 1.6 10.6-.9 4-1.9 4.8-2 9.6-.9 6 1.4 24.1 10 24.6 11.8.2.6-1.4 1.4-3.6 1.8-5.2.8-10 3.9-11.3 7.2-1.1 3.1.4 11.9 2.6 14.9 1.3 1.8 1.5 1.8 4.5.1 1.8-.9 5.3-1.7 8-1.7s5.2-.5 5.5-1.1c.4-.5 1-3.1 1.3-5.7l.7-4.7 7.1-.5c7.7-.5 8.2-.8 16.4-8.6 6.8-6.6 11.5-8.7 16.1-7.4 4 1.2 4.5.8 3.1-2.7-.6-1.5-1.6-5.5-2.2-8.8-1.6-9.1-3.4-39.5-2.6-43.8.6-3.3.9-3.6 2.7-2.7 2.6 1.5 12 21.1 16.5 34.4 3.1 9.3 3.6 12.3 3.5 19.5v8.4l2.9-2.8c3.9-3.7 7.1-11.5 7.8-19.3.9-8.7 1.7-9.1 12.9-6.8 4.8.9 10.4 2.5 12.3 3.4 3.4 1.7 3.5 1.8 3.2 7.2-.2 3.9.4 7.9 2.3 13.7 1.4 4.6 2.7 8.3 2.9 8.3.2 0 .1-4.5-.2-10l-.5-10 3.6-3.3c3.8-3.6 20.8-13.7 27.6-16.4 6.6-2.6 7.4-1.2 8.2 15 .6 13.5 2 19 4.2 16.8 1.5-1.6 1.4-15.3-.3-25.1-1.6-9.4-3.5-14.8-6.2-17.7-2.9-3.1-1.2-2.9 7.9.7 8.2 3.3 12.4 3.8 14.3 1.5 1.9-2.2.6-5.3-5.5-13.4-3.1-4.1-7.1-10.4-8.9-14-11.7-23.1-23.6-58.3-23.6-69.5 0-4.8 0-4.8 2.9-4.3 4.6.9 4.7-1.7.3-6.6-4.2-4.6-9.1-12.5-14.2-22.7-6.4-12.7-12.2-19.5-20.5-23.7-2.7-1.4-6.4-4-8.1-5.8-3.1-3.4-5.9-4.5-18.4-7.1-8.6-1.8-26.4-3.4-37.3-3.4-8.8 0-10.8-1.2-4.4-2.5 9.5-2 19.3-10.9 24.9-22.4 2.9-5.8 3.2-7.5 3.1-14.6 0-4.4-.4-11-.8-14.6-1.1-10 1.8-14.4 10.5-15.8 6.8-1.2 6.9-6.6.3-23.6-9.1-23.5-7.8-42.8 3.2-47.5 7.5-3.2 8-4.6 8.3-27.2l.4-19.8 2.9-2.5c3.4-2.8 7.7-4.1 19.6-6.1 4.6-.7 10.3-2.2 12.8-3.3 3.7-1.6 4.5-2.5 4.5-4.6 0-2.3-.9-3.1-7.1-5.9l-7.1-3.3 7.5-.5c8.4-.5 15.2-3.7 17.6-8.1 3.1-5.8-1.5-8.1-18.8-9.6-20-1.8-37.9-6.3-68.5-17.4-16.5-6.1-16.6-5.4.4-7.8 16.1-2.2 14.6-3-11-5.4-44.5-4.3-75.2-2.7-98.8 5.2-20.6 6.9-50.1 25.8-64.8 41.6-5.7 6-6.4 7.2-8.4 15.1-5.3 19.8-7.9 12.5-13.5-37.9-4.5-40.4-8.9-75.3-12.1-96.5-5-33.1-6.4-45.7-6.5-57-.1-12.8.2-14.1 4.3-18.8 4.4-5.2 3.4-11.2-1.8-11.2-3.9 0-7.3-4-8.8-10.5-.8-3.3-2.4-13.7-3.6-23-1.2-9.4-3.9-28.5-6-42.5s-4.3-29.9-4.9-35.2c-1.2-10.8-1.4-30-.5-37.1l.6-4.5 28.2.1c30.7.1 45.6-1.2 82.7-7.3 35.5-5.9 79.2-16.4 103.4-25 52-18.4 107.3-57.4 130-91.5 11.1-16.6 22.7-42.9 25.9-58.8 1.7-8.3 1.4-11.4-1.6-16.5-3.1-5.1-5.5-4.3-16.3 5.2-10.2 9-19.1 14.2-30.7 18.2-22.2 7.5-49.3 7.7-73.9.4-7.1-2.1-10.3-4.7-9.3-7.4.9-2.2 10.3-8.8 24.6-17 35.7-20.5 80.3-58.6 102.7-87.9 16.3-21.2 41.2-66 48.9-87.9 4-11.2 6.7-16.5 9.2-17.8 1.7-.9 1.9-1.7 1.4-4.8-.4-2.9 0-4.9 1.7-8.2 2-3.8 2.4-6 2.4-13.7 0-5.9-.4-9.6-1.2-10.4-1.2-1.2-6.4-2.3-17.8-3.4-5.6-.6-6.3-.5-10 2.4zm-478 93.1c-2.5 2.8-13.6 9.2-32 18.5-27.2 13.7-46.1 21.3-36.9 14.8C68 162 102 144 119 136.4c10.8-4.9 13.3-5.4 10.5-2.4zm309 169.5c12.5 6 21.1 8.8 33.8 10.8 4.8.8 9 1.6 9.2 1.9.8.7-24.4 4-31.8 4.1-9.6.1-11.7-1.1-11.7-6.8 0-4.7-.7-5.2-10-7-7.1-1.4-11.2-5.3-8.8-8.2 1.8-2.2 6.9-.9 19.3 5.2zM283 352.2c0 .7-1.2 2.5-2.7 4-4 4.2-2.2 5.1 6.7 3.7 10.6-1.6 17-.9 22 2.6 4.4 3 8.9 3.7 14.3 2.2 3.6-1 3.3.8-.6 3.7-3.8 2.8-14.1 3.3-26.7 1.1-16.8-2.8-35-8.8-35-11.5 0-1.6 4.9-4.3 10.3-5.6 6.8-1.6 11.7-1.7 11.7-.2zm126.7 3.4c2.2 5.7-8.9 10-38.7 14.9-16.2 2.6-31.5 3.4-33.3 1.6-4.2-4.2 21.8-11.1 31.4-8.2 5.1 1.5 8 .9 20.4-4.4 12.9-5.5 12.4-5.3 16.3-5.4 2.1-.1 3.5.5 3.9 1.5zm-220 178.2c2.2 1.4 4.3 9.3 5.9 22.1.8 6.9 2.2 17.2 3 22.9 3 21.4 1.3 24.7-8.5 17.1-2.4-1.9-7.1-2.6-7.1-1.1 0 3 15.3 17.8 35.7 34.8l2.3 1.9-10 13c-10.4 13.6-16 22.8-16 26.4 0 3.4 1.6 2.5 6.2-3.7 3.1-4 5.2-5.8 7-6 3.1-.4 3.4.3 4.3 10.8 1 11.3 3.8 29.7 10.4 69 6.8 40.6 14.6 91.8 22.6 149.5 6.6 47.8 7.9 55.2 11 67.3 4.7 17.9 10.1 25.4 22.3 31.6 8.9 4.5 13.2 8.7 13.2 12.9 0 4.7-.9 5.3-7.1 5.3-4.9 0-7.2.8-21 7.6-24.7 12.3-55.7 22.6-76.4 25.3-7.1.9-13.8 2.5-17.9 4.1-5.4 2.3-6.8 2.5-8.1 1.4-2.1-1.7-1.3-5.7 3.7-18.4 6.9-17.5 6.6-21.3-5.3-63.2-9.7-34.4-14.3-53.5-18.4-76.9-1.9-11-4.6-25.9-5.9-33-1.4-7.2-4.1-23.9-6-37.1-2-13.3-4.5-28.8-5.6-34.5-1.1-5.7-3.1-16.3-4.4-23.4-1.4-7.2-3.4-20.9-4.6-30.5-1.1-9.6-3-25.2-4.1-34.5-2.8-22.6-7.6-52-14.3-86.3-9.3-47.4-9.9-51.5-8-52.9 2.3-1.7 7-2.1 29.4-2.8 11-.3 22.4-1.1 26.2-1.9 6.6-1.5 9.6-2.6 31.8-12.5 12.6-5.6 12-5.4 13.7-4.3zM369.5 867c18 1.4 26.8 2.7 35 5.3 10.4 3.2 25.4 3 35.1-.7 3.9-1.4 7.6-2.6 8.2-2.6.6 0 2.7 1.1 4.7 2.4 2 1.4 6 3.2 8.9 4 5.8 1.7 9.2 4.6 8.2 7.2-.5 1.4-1.5 1.5-6.9.8-3.4-.4-8-.8-10.2-.8-4.4-.1-4.6.4-3 8.6.7 3.7.7 3.8-2.2 3.8-1.6 0-8.3-1.6-14.9-3.6-13.1-3.9-26.5-5.5-30.2-3.5-1.9 1-2.1 1.7-1.6 5.2.6 3.5.3 4.4-2.1 6.9-2.3 2.4-2.7 3.5-2.3 6.7.7 5.3 3.8 11.3 7.1 13.7 2.3 1.7 4.6 2.1 14.5 2.4 8.2.3 12.6.1 14.2-.8 2.1-1.2 2.2-1.6 1.7-8.6-.8-9 .2-10.4 7.3-10.4 5.8 0 7 1.3 4.1 4.4-4.4 4.6-4.6 7.6-1.2 19.3 3.9 13.9 5.1 21.6 5.1 33 0 10.7-.7 11.8-7.6 12.9-7.8 1.1-16.8-.1-22-3-2.5-1.4-5-2.6-5.5-2.6-.4 0-1.9 1.2-3.3 2.6-3.2 3.5-5.5 3-21.9-4.7-7.1-3.3-15.9-6.7-19.5-7.6-9-2.1-11.2-3.2-13.9-7.2-3.8-5.6-4.5-9.7-5.4-34.1-.5-12.9-1.5-29.7-2.2-37.3l-1.3-13.8 5.1.6c2.7.3 10.9 1 18 1.5zm-63.7 23.2c2.2 2.2 1.4 8.4-1.4 11.8-2.2 2.6-9 7-10.9 7-2.1 0 2.9-13.1 6.6-17.1 3-3.2 3.9-3.5 5.7-1.7zM295 923.6c1.4 3.5 1.3 11.7-.2 14.8-1.6 3.6-4.6 4.3-7.1 1.7-1.5-1.4-2.2-3.7-2.5-8-.4-5.4-.2-6.2 2.1-8.5 3.4-3.4 6.5-3.4 7.7 0zm14.6 23.6c.5.7 1.1 13 1.5 27.3.5 17.7 1.2 28.1 2.3 32.4.8 3.6 1.3 6.8 1 7.2-.3.5-1.7.6-3.2.3-3.8-.7-6.7 1.6-5.9 4.7 1.7 6.6 23.8 23.2 26.8 20.2.6-.6.5-2.1-.2-4.2-.6-1.7-.9-3.5-.5-3.8.9-.9 13.2 7.5 17 11.7 3.7 4.1 4.1 5.1 5.1 12.2.4 3 1.6 6 3.2 7.8 2.3 2.7 2.5 3.7 2 8.4-.3 3.3-.1 5.8.6 6.5 2.2 2.2 7.7 1.1 16.4-3.4 4.8-2.5 9.5-4.5 10.6-4.5 2.1 0 4.7 5.4 4.7 10 0 4.5-2.6 9.9-5.2 10.9-1.3.5-8.2 1.9-15.4 3.1-16.3 2.7-17.5 2.4-32.2-7.3-10.3-6.8-13.3-8.5-22.4-12.1-4.7-1.8-6.8-6-10.3-19.5-3.7-14.6-5.2-18.1-8-18.1-2.6 0-7.3-4.3-8.1-7.6-.7-2.9.6-5.3 6.7-12 5.6-6.1 6.9-8.9 6.9-14 0-4.6-1.9-8.1-8.6-15.6-7.2-8.1-10.1-13.2-11.5-19.9-1.9-9.4-.3-11.3 14.8-18 9.7-4.2 10.8-4.5 11.9-2.7zm-34.9 87c4.4 6.6 3.9 11.6-2 20.1-4.7 6.9-5.5 9.1-3.7 10.2 2.5 1.5.9 5.4-4.1 9.9-7.3 6.5-8 6.3-5.3-1.8 1.8-5.1 1.2-7.1-1.1-4-1.7 2.2-4.5 10.8-4.5 13.9 0 3.1-3.7 7.5-7.6 9.1-4.3 1.8-15.4 1.8-22.3-.1-3-.8-9.8-3.5-15.1-6.1-5.4-2.5-10.4-4.4-11.1-4.2-1.8.6 7.5 9.5 14.9 14.5 3 1.9 7.2 4 9.4 4.6 2.1.5 4.7 2 5.7 3.3 1.1 1.4 3 2.4 4.3 2.4 4.2 0 12.7-5.1 20.3-12.1 10.8-10 17.5-12.8 22-9.5 1.8 1.3 1.8 1.6-1.8 5.9-5 6.2-9.8 9.7-19.2 14.5-13.3 6.6-24.6 9.1-25.9 5.6-.5-1.2-1.5-1.4-4.9-.9-5.7.9-11.6-1.6-23.9-10.1-8.6-6-12.8-7.8-12.8-5.4 0 .5 1.2 1.7 2.8 2.7 4 2.6 4.3 3.3 3.7 8.7-.7 5.5-2.8 11.2-5.1 13.7-5.5 6.1-9.5-10.3-7.4-30.4 1.9-19 7.3-35.7 12.5-39.1 1.2-.8 12-3.7 24.1-6.6 12-2.8 29.1-6.8 37.9-9 8.8-2.1 16.3-3.9 16.7-3.9.4-.1 2 1.8 3.5 4.1zm174.7 26.2c3.4 2.2 2.8 4.2-1 3.8-1.6-.1-7.2-.3-12.4-.4-8.1-.2-10.1.1-13.6 1.9-5.9 3.1-6.8 4.6-6.8 11.7-.1 5.1-.6 7-2.9 10.4-3.3 5-5.1 5.3-6.6 1.1-1.7-5-1.3-8 1.5-10.6 2.2-2 2.5-3 2.1-5.9-1.1-6.8 2.4-9.9 14.5-13 7.4-1.9 21.7-1.3 25.2 1zm27.2 10.7c11.2 3.4 14.9 6.1 20.5 14.9 4.9 7.6 7 9.6 9.1 8.4 1.8-1.1 2.5 1.6 1.7 6.2-.6 3-.4 7 .6 12.1 1.4 7.2 3.4 13.4 13.9 42.7 2.6 7.1 4.3 13.2 3.9 13.6-1.4 1.2-15 4.2-17.4 3.8-2.1-.3-1.9-.6 1.9-2.6 2.3-1.2 4.2-2.9 4.2-3.6 0-1.6-8.2-6.9-12.2-7.9-1.6-.4-4.4-.1-7 .9-9.8 3.5-10.8 3.8-12 2.6-1.1-1.1-.9-1.5 5.9-11.7 2.4-3.5 3.1-5.4 2.6-7.5-.4-2.4.4-3.8 5.6-9.3 6.6-7.2 8.3-11 5.8-13.4-1.2-1.2-2.4-1.3-6-.6-4.8 1.1-7.7.2-7.7-2.2 0-2.4-2.4-1.7-7.1 1.8-7.3 5.6-9 6.3-10.6 4.1-.7-1-1.3-3.5-1.3-5.6 0-5.2-1.6-5.6-9.5-2.4-8.1 3.2-9.5 3.3-6.5.1 3.4-3.6 10-6.5 14.9-6.5 3.5 0 4.8-.6 8.4-4.1 2.7-2.6 3.5-3.8 2.2-3.4-3.8 1.2-4 1-3.6-3 .9-9.8.7-11-1.7-11.3-1.4-.2-4.7 1-8 3.1-9.5 5.8-23.5 8.8-24.8 5.3-1.1-2.9 11-17.9 19-23.8 4.7-3.4 6.3-3.4 15.2-.7zm-159.6 20c4.4 2.2 14 11.4 14 13.3 0 1.9-7.5 3.1-12.7 2.1-8.3-1.5-13.3-5.9-13.3-11.6 0-2.8.6-4.2 2.2-5.3 2.4-1.7 4.2-1.4 9.8 1.5zm109.3 20.6c1.7.9 2.7 2.1 2.5 3.1-.8 4.3-20.5 4.1-22.2-.3-1.7-4.6 12.3-6.6 19.7-2.8zm-88.8.8c4 1.6 5.1 3.6 3.7 6.2-.9 1.6-2.5 1.8-11.4 1.8-9 0-10.9.3-15.3 2.5-3.5 1.8-5.1 3.2-5.5 5-.8 3.5-6.1 5.8-16.4 7.2-6.2.8-8.9.9-9.7.1-.8-.8-.4-1.6 1.5-2.8 1.4-1 2.6-2.3 2.6-3 0-.7-2.4-2.8-5.2-4.6l-5.3-3.3 6-.8c18.7-2.4 22.9-3.2 32-6.3 10.9-3.7 17.6-4.3 23-2zm131.5 17.2c0 .3-4.5 5.2-10 10.8-6.2 6.4-10.1 11.4-10.5 13.1-1.3 6.3-4.4 8-8.5 4.6-2.2-1.8-2.3-2.2-1.1-5.1 1.7-4 11.6-13.2 21-19.3 7.1-4.6 9.1-5.5 9.1-4.1zm-149.8 8c3.9 3.5 1.4 7.1-7.2 10.4-9 3.4-31.8 6.1-36.4 4.3-1.9-.7-2.2-6.9-.5-8 .7-.4 3.7-.8 6.8-.9 3.1-.2 9.9-1.7 15.1-3.3 14.9-4.8 19.2-5.3 22.2-2.5zm-49.6 19.4c.9 1.7 1.6 5.1 1.7 7.6 0 3.8-.5 4.9-3.6 8.1-2.1 2.1-3.7 4.1-3.7 4.4 0 .4 1.7 1.2 3.8 1.9 5.2 1.6 9.2 4.1 9.2 5.6s1.1 1.6 9.3 1.3c5.6-.2 5.9-.1 5.5 2.2-.2 1.7-1.9 3.1-6.3 5.3-4.7 2.3-6.1 3.6-6.5 5.7-.4 2.2-.8 2.5-2 1.8-.8-.6-4.8-.7-9.1-.4-8.7.7-14.3-.6-16-3.9-1-1.7-.8-2.3.8-3.7 2.4-1.9 4.3-5.3 4.3-7.5 0-3.5-3.4-8.7-7.6-11.6-2.4-1.6-4.4-3.6-4.4-4.4 0-2.7 17.5-15.5 21.2-15.5 1 0 2.5 1.4 3.4 3.1zm263.3 30.3c.6.7.9 2.1.5 2.9-1.5 3.9-18.4 11.7-25.3 11.7-7.5 0-3.8-4.6 9.6-11.7 8-4.4 13.2-5.4 15.2-2.9zm6.1 16.4c0 5.8-5.3 9.2-14.5 9.2-6 0-11.3 1.8-12 4-1.2 3.9-9.8 3.8-11 0-.7-2.3-3.5-2.6-7.3-.6-1.5.7-3.8 1.7-5.2 2.1-2.3.7-2.4.6-1.1-.9 2.4-2.8 8.3-5.4 15.2-6.6 6.5-1.1 17.3-4.3 26.4-7.9 7.3-2.9 9.5-2.7 9.5.7zm-107.8 1.4c.9 1.7 1.3 7.7 1.3 21.8 0 23-1 27.4-7.5 31.5-4.7 3-9 4.2-9 2.5 0-.6 1.6-3.1 3.5-5.4 4-5 4.3-6.8 1.4-9.7-1.7-1.7-2-2.9-1.5-6.2.5-3.2.2-4.9-1.4-7.2-2.8-4.2-2.6-11.2.6-20.4 1.4-4.2 2.8-7.9 3.1-8.4.2-.4 2.2-.7 4.3-.7 3 0 4.2.5 5.2 2.2zm-225.7 68.2c4.4 1.8 14.5 6.2 22.5 9.7l14.5 6.4-4.7.3c-11.3.7-46.8-13.1-46.8-18.3 0-2.5 5.8-1.8 14.5 1.9z"/>
  <path d="M146.2 162.2c-1.7 2.9-8.9 11.7-16.1 19.6-16.6 18.2-19.6 23.7-19.6 36.2 0 12.3 2.8 15.9 14.3 18.6 7.4 1.8 25.6 1.9 27 .1.6-.8.6-3.8 0-8.7-.6-4.1-.8-14.5-.5-23 .5-15.5 1.3-19.6 5.5-28 3.8-7.8 1-19.1-5-19.8-2.1-.3-3 .5-5.6 5zm-6.3 44.3c.1 22.2-.2 23-7.8 23-4.7-.1-5.7-.5-8.2-3.3-3.8-4.2-4.5-8.9-2.4-15.5 2-6.3 9.5-18.9 13.8-23.5 3.2-3.3 3.2-3.3 3.9-1 .3 1.3.6 10.4.7 20.3z"/>
</svg>
